<?xml version="1.0" encoding="UTF-8" standalone="no"?>
<!DOCTYPE svg PUBLIC "-//W3C//DTD SVG 1.1//EN"
 "http://www.w3.org/Graphics/SVG/1.1/DTD/svg11.dtd">
<!-- Generated by graphviz version 2.26.3 (20100126.1600)
 -->
<!-- Title: G Pages: 1 -->
<svg width="268pt" height="260pt"
 viewBox="0.00 0.00 268.00 260.00" xmlns="http://www.w3.org/2000/svg" xmlns:xlink="http://www.w3.org/1999/xlink">
<g id="graph1" class="graph" transform="scale(1 1) rotate(0) translate(4 256)">
<title>G</title>
<polygon fill="white" stroke="white" points="-4,5 -4,-256 265,-256 265,5 -4,5"/>
<g id="graph2" class="cluster"><title>cluster_global</title>
<polyline fill="none" stroke="gray" points="20,-8 240,-8 "/>
<path fill="none" stroke="gray" d="M240,-8C246,-8 252,-14 252,-20"/>
<polyline fill="none" stroke="gray" points="252,-20 252,-232 "/>
<path fill="none" stroke="gray" d="M252,-232C252,-238 246,-244 240,-244"/>
<polyline fill="none" stroke="gray" points="240,-244 20,-244 "/>
<path fill="none" stroke="gray" d="M20,-244C14,-244 8,-238 8,-232"/>
<polyline fill="none" stroke="gray" points="8,-232 8,-20 "/>
<path fill="none" stroke="gray" d="M8,-20C8,-14 14,-8 20,-8"/>
<text text-anchor="middle" x="130" y="-230.1" font-family="Times Roman,serif" font-size="11.00" fill="gray">global</text>
</g>
<!-- \\Proyecto -->
<g id="node2" class="node"><title>\\Proyecto</title>
<a xlink:href="Proyecto.html" xlink:title="Proyecto" target="_parent">
<polygon fill="none" stroke="black" points="237,-214 167,-214 167,-178 237,-178 237,-214"/>
<text text-anchor="middle" x="202" y="-193.1" font-family="Courier,monospace" font-size="11.00">Proyecto</text>
</a>
</g>
<!-- \\ObjetoBD -->
<g id="node3" class="node"><title>\\ObjetoBD</title>
<a xlink:href="ObjetoBD.html" xlink:title="ObjetoBD" target="_parent">
<polygon fill="none" stroke="black" points="87,-133 17,-133 17,-97 87,-97 87,-133"/>
<text text-anchor="middle" x="52" y="-112.1" font-family="Courier,monospace" font-size="11.00">ObjetoBD</text>
</a>
</g>
<!-- \\Proyecto&#45;&gt;\\ObjetoBD -->
<g id="edge3" class="edge"><title>\\Proyecto&#45;&gt;\\ObjetoBD</title>
<path fill="none" stroke="black" d="M168.337,-177.822C146.528,-166.045 117.938,-150.606 94.5577,-137.981"/>
<polygon fill="none" stroke="black" points="96.0127,-134.789 85.5506,-133.117 92.6866,-140.949 96.0127,-134.789"/>
</g>
<!-- \\Rango -->
<g id="node4" class="node"><title>\\Rango</title>
<a xlink:href="Rango.html" xlink:title="Rango" target="_parent">
<polygon fill="none" stroke="black" points="229,-160 175,-160 175,-124 229,-124 229,-160"/>
<text text-anchor="middle" x="202" y="-139.1" font-family="Courier,monospace" font-size="11.00">Rango</text>
</a>
</g>
<!-- \\Rango&#45;&gt;\\ObjetoBD -->
<g id="edge5" class="edge"><title>\\Rango&#45;&gt;\\ObjetoBD</title>
<path fill="none" stroke="black" d="M174.836,-137.111C153.392,-133.251 122.992,-127.779 97.8013,-123.244"/>
<polygon fill="none" stroke="black" points="98.1844,-119.757 87.7225,-121.43 96.9443,-126.646 98.1844,-119.757"/>
</g>
<!-- \\Compilador -->
<g id="node5" class="node"><title>\\Compilador</title>
<a xlink:href="Compilador.html" xlink:title="Compilador" target="_parent">
<polygon fill="none" stroke="black" points="244,-106 160,-106 160,-70 244,-70 244,-106"/>
<text text-anchor="middle" x="202" y="-85.1" font-family="Courier,monospace" font-size="11.00">Compilador</text>
</a>
</g>
<!-- \\Compilador&#45;&gt;\\ObjetoBD -->
<g id="edge7" class="edge"><title>\\Compilador&#45;&gt;\\ObjetoBD</title>
<path fill="none" stroke="black" d="M159.817,-95.5929C140.484,-99.0728 117.527,-103.205 97.7758,-106.76"/>
<polygon fill="none" stroke="black" points="96.9971,-103.344 87.7754,-108.56 98.2373,-110.233 96.9971,-103.344"/>
</g>
<!-- \\Usuario -->
<g id="node6" class="node"><title>\\Usuario</title>
<a xlink:href="Usuario.html" xlink:title="Usuario" target="_parent">
<polygon fill="none" stroke="black" points="234,-52 170,-52 170,-16 234,-16 234,-52"/>
<text text-anchor="middle" x="202" y="-31.1" font-family="Courier,monospace" font-size="11.00">Usuario</text>
</a>
</g>
<!-- \\Usuario&#45;&gt;\\ObjetoBD -->
<g id="edge9" class="edge"><title>\\Usuario&#45;&gt;\\ObjetoBD</title>
<path fill="none" stroke="black" d="M169.821,-51.3765C147.761,-63.2889 118.268,-79.2152 94.3091,-92.1531"/>
<polygon fill="none" stroke="black" points="92.5605,-89.1196 85.4245,-96.9508 95.8866,-95.2789 92.5605,-89.1196"/>
</g>
</g>
</svg>
